<svg xmlns="http://www.w3.org/2000/svg" viewBox="0 0 1366 588" role="img" aria-labelledby="title desc">
  <title id="title">Haus Amos Floorplan</title>
  <desc id="desc">Blauer Raumplan mit sechs Tischen, Klavier, Tür und Servicebereich.</desc>
  <defs>
    <linearGradient id="floor" x1="0%" y1="0%" x2="100%" y2="100%">
      <stop offset="0%" stop-color="#143d70" />
      <stop offset="52%" stop-color="#2f72b9" />
      <stop offset="100%" stop-color="#12355e" />
    </linearGradient>
    <linearGradient id="table" x1="0%" y1="0%" x2="0%" y2="100%">
      <stop offset="0%" stop-color="#f7f7f7" />
      <stop offset="100%" stop-color="#dfe5ed" />
    </linearGradient>
    <linearGradient id="chair" x1="0%" y1="0%" x2="0%" y2="100%">
      <stop offset="0%" stop-color="#b03949" />
      <stop offset="100%" stop-color="#7e2334" />
    </linearGradient>
    <linearGradient id="wood" x1="0%" y1="0%" x2="100%" y2="100%">
      <stop offset="0%" stop-color="#d5aa7a" />
      <stop offset="100%" stop-color="#a87346" />
    </linearGradient>
    <filter id="shadow" x="-20%" y="-20%" width="140%" height="140%">
      <feDropShadow dx="0" dy="10" stdDeviation="10" flood-color="#0b2340" flood-opacity="0.28" />
    </filter>
  </defs>

  <rect width="1366" height="588" fill="#244766" />
  <rect x="10" y="10" width="1346" height="568" rx="6" fill="url(#floor)" stroke="#20384e" stroke-width="3" />

  <g opacity="0.9">
    <rect x="160" y="1" width="160" height="20" rx="2" fill="#e8edf2" />
    <rect x="470" y="1" width="160" height="20" rx="2" fill="#e8edf2" />
    <rect x="785" y="1" width="160" height="20" rx="2" fill="#e8edf2" />
    <rect x="1098" y="1" width="160" height="20" rx="2" fill="#e8edf2" />
  </g>

  <g opacity="0.92">
    <rect x="0" y="120" width="18" height="120" fill="#f2f5f7" />
    <rect x="0" y="390" width="18" height="120" fill="#f2f5f7" />
    <rect x="1348" y="205" width="18" height="154" fill="#f2f5f7" />
    <rect x="3" y="124" width="6" height="112" fill="#a6b7c7" />
    <rect x="3" y="394" width="6" height="112" fill="#a6b7c7" />
    <rect x="1357" y="209" width="6" height="146" fill="#a6b7c7" />
  </g>

  <g opacity="0.88">
    <rect x="264" y="474" width="276" height="78" fill="url(#wood)" stroke="#94653e" stroke-width="4" />
    <rect x="278" y="489" width="248" height="28" fill="#f3f1ea" stroke="#cabaa7" stroke-width="2" />
    <g stroke="#2b2b2b" stroke-width="4">
      <line x1="292" y1="490" x2="292" y2="517" />
      <line x1="306" y1="490" x2="306" y2="517" />
      <line x1="320" y1="490" x2="320" y2="517" />
      <line x1="334" y1="490" x2="334" y2="517" />
      <line x1="348" y1="490" x2="348" y2="517" />
      <line x1="362" y1="490" x2="362" y2="517" />
      <line x1="376" y1="490" x2="376" y2="517" />
      <line x1="390" y1="490" x2="390" y2="517" />
      <line x1="404" y1="490" x2="404" y2="517" />
      <line x1="418" y1="490" x2="418" y2="517" />
      <line x1="432" y1="490" x2="432" y2="517" />
      <line x1="446" y1="490" x2="446" y2="517" />
      <line x1="460" y1="490" x2="460" y2="517" />
      <line x1="474" y1="490" x2="474" y2="517" />
      <line x1="488" y1="490" x2="488" y2="517" />
      <line x1="502" y1="490" x2="502" y2="517" />
    </g>
  </g>

  <g opacity="0.92">
    <path d="M946 504 L1100 488 L1248 500 L1328 500 L1328 566 L920 566 L920 544 L944 544 Z" fill="url(#wood)" stroke="#94653e" stroke-width="4" />
    <rect x="916" y="504" width="20" height="62" fill="#9aa7b0" />
    <rect x="870" y="534" width="50" height="32" fill="#9aa7b0" />
  </g>

  <g opacity="0.92">
    <rect x="618" y="474" width="8" height="112" fill="#607a8d" />
    <path d="M626 474 C674 488 714 520 714 560" fill="none" stroke="#607a8d" stroke-width="3" />
    <path d="M714 560 L714 588 L618 588 Z" fill="#f0f2f5" />
  </g>

  <g filter="url(#shadow)">
    <g transform="translate(28 98)">
      <rect x="0" y="0" width="158" height="104" rx="4" fill="url(#table)" stroke="#ced7df" stroke-width="3" />
      <rect x="22" y="-46" width="46" height="40" rx="18" fill="url(#chair)" stroke="#d99d61" stroke-width="4" />
      <rect x="86" y="-46" width="46" height="40" rx="18" fill="url(#chair)" stroke="#d99d61" stroke-width="4" />
      <rect x="22" y="110" width="46" height="40" rx="18" fill="url(#chair)" stroke="#d99d61" stroke-width="4" />
      <rect x="86" y="110" width="46" height="40" rx="18" fill="url(#chair)" stroke="#d99d61" stroke-width="4" />
      <circle cx="79" cy="52" r="30" fill="#263b57" />
      <text x="79" y="65" text-anchor="middle" font-size="52" font-weight="700" fill="#ffffff">1</text>
    </g>

    <g transform="translate(28 370)">
      <rect x="0" y="0" width="158" height="104" rx="4" fill="url(#table)" stroke="#ced7df" stroke-width="3" />
      <rect x="22" y="-46" width="46" height="40" rx="18" fill="url(#chair)" stroke="#d99d61" stroke-width="4" />
      <rect x="86" y="-46" width="46" height="40" rx="18" fill="url(#chair)" stroke="#d99d61" stroke-width="4" />
      <rect x="22" y="110" width="46" height="40" rx="18" fill="url(#chair)" stroke="#d99d61" stroke-width="4" />
      <rect x="86" y="110" width="46" height="40" rx="18" fill="url(#chair)" stroke="#d99d61" stroke-width="4" />
      <circle cx="79" cy="52" r="30" fill="#263b57" />
      <text x="79" y="65" text-anchor="middle" font-size="52" font-weight="700" fill="#ffffff">2</text>
    </g>

    <g transform="translate(376 46)">
      <rect x="0" y="0" width="106" height="132" rx="4" fill="url(#table)" stroke="#ced7df" stroke-width="3" />
      <rect x="-48" y="12" width="42" height="34" rx="16" fill="url(#chair)" stroke="#d99d61" stroke-width="4" />
      <rect x="-48" y="76" width="42" height="34" rx="16" fill="url(#chair)" stroke="#d99d61" stroke-width="4" />
      <rect x="112" y="12" width="42" height="34" rx="16" fill="url(#chair)" stroke="#d99d61" stroke-width="4" />
      <rect x="112" y="76" width="42" height="34" rx="16" fill="url(#chair)" stroke="#d99d61" stroke-width="4" />
      <circle cx="53" cy="66" r="28" fill="#263b57" />
      <text x="53" y="79" text-anchor="middle" font-size="46" font-weight="700" fill="#ffffff">3</text>
    </g>

    <g transform="translate(637 46)">
      <rect x="0" y="0" width="106" height="132" rx="4" fill="url(#table)" stroke="#ced7df" stroke-width="3" />
      <rect x="-48" y="12" width="42" height="34" rx="16" fill="url(#chair)" stroke="#d99d61" stroke-width="4" />
      <rect x="-48" y="76" width="42" height="34" rx="16" fill="url(#chair)" stroke="#d99d61" stroke-width="4" />
      <rect x="112" y="12" width="42" height="34" rx="16" fill="url(#chair)" stroke="#d99d61" stroke-width="4" />
      <rect x="112" y="76" width="42" height="34" rx="16" fill="url(#chair)" stroke="#d99d61" stroke-width="4" />
      <circle cx="53" cy="66" r="28" fill="#263b57" />
      <text x="53" y="79" text-anchor="middle" font-size="46" font-weight="700" fill="#ffffff">4</text>
    </g>

    <g transform="translate(1058 32)">
      <rect x="0" y="0" width="112" height="174" rx="4" fill="url(#table)" stroke="#ced7df" stroke-width="3" />
      <rect x="-44" y="14" width="40" height="34" rx="16" fill="url(#chair)" stroke="#d99d61" stroke-width="4" />
      <rect x="-44" y="84" width="40" height="34" rx="16" fill="url(#chair)" stroke="#d99d61" stroke-width="4" />
      <rect x="-44" y="144" width="40" height="34" rx="16" fill="url(#chair)" stroke="#d99d61" stroke-width="4" />
      <rect x="116" y="14" width="40" height="34" rx="16" fill="url(#chair)" stroke="#d99d61" stroke-width="4" />
      <rect x="116" y="84" width="40" height="34" rx="16" fill="url(#chair)" stroke="#d99d61" stroke-width="4" />
      <circle cx="56" cy="87" r="28" fill="#263b57" />
      <text x="56" y="100" text-anchor="middle" font-size="46" font-weight="700" fill="#ffffff">5</text>
    </g>

    <g transform="translate(1058 208)">
      <rect x="0" y="0" width="112" height="184" rx="4" fill="url(#table)" stroke="#ced7df" stroke-width="3" />
      <rect x="-44" y="14" width="40" height="34" rx="16" fill="url(#chair)" stroke="#d99d61" stroke-width="4" />
      <rect x="-44" y="84" width="40" height="34" rx="16" fill="url(#chair)" stroke="#d99d61" stroke-width="4" />
      <rect x="116" y="14" width="40" height="34" rx="16" fill="url(#chair)" stroke="#d99d61" stroke-width="4" />
      <rect x="116" y="84" width="40" height="34" rx="16" fill="url(#chair)" stroke="#d99d61" stroke-width="4" />
      <circle cx="56" cy="92" r="28" fill="#263b57" />
      <text x="56" y="105" text-anchor="middle" font-size="46" font-weight="700" fill="#ffffff">6</text>
    </g>
  </g>

  <g opacity="0.95">
    <path d="M868 20 L890 34 L906 16 L930 34 L924 58 L896 60 L876 48 Z" fill="#80a95d" stroke="#54753b" stroke-width="3" />
    <path d="M42 280 L58 294 L74 274 L94 294 L86 320 L62 324 L44 306 Z" fill="#80a95d" stroke="#54753b" stroke-width="3" />
  </g>

  <g opacity="0.82" fill="#a1b3c5" stroke="#5f7286" stroke-width="3">
    <rect x="906" y="18" width="18" height="68" />
    <rect x="862" y="504" width="8" height="40" />
  </g>
</svg>
