<svg xmlns="http://www.w3.org/2000/svg" width="512" height="340" viewBox="0 0 512 340">
  <rect width="512" height="340" fill="white"/>

  <!-- Druckrobuste Icons: bewusst einfache Vollformen fuer Thermopapier. -->
  <g fill="white" stroke="black" stroke-width="6" stroke-linecap="round" stroke-linejoin="round">
    <circle cx="72" cy="74" r="48"/>
    <circle cx="72" cy="74" r="39"/>
    <path d="M72 35v78M33 74h78M45 47l54 54M99 47l-54 54"/>
  </g>
  <g fill="black">
    <circle cx="53" cy="60" r="6"/>
    <circle cx="78" cy="49" r="6"/>
    <circle cx="96" cy="73" r="6"/>
    <circle cx="61" cy="91" r="6"/>
    <circle cx="86" cy="103" r="6"/>
    <circle cx="43" cy="83" r="5"/>
  </g>

  <g fill="black">
    <path d="M197 18h6v38h-6zM206 18h6v38h-6zM215 18h6v38h-6zM224 18h6v38h-6z"/>
    <rect x="208" y="54" width="11" height="55" rx="5"/>
    <path d="M342 18c15 0 24 14 24 34 0 18-8 31-19 35v23h-10V87c-11-4-19-17-19-35 0-20 9-34 24-34z"/>
  </g>
  <g fill="white" stroke="black" stroke-width="7" stroke-linejoin="round">
    <path d="M249 20h48c-2 34-11 51-24 57-13-6-22-23-24-57z"/>
    <path d="M273 77v28M259 106h28"/>
  </g>

  <g fill="white" stroke="black" stroke-width="6" stroke-linecap="round" stroke-linejoin="round">
    <path d="M34 170c0-22 19-39 43-39s43 17 43 39c0 8-5 14-13 14H91c-2 20-12 31-28 31s-26-11-28-31H19c-8 0-13-6-13-14z"/>
    <path d="M55 184v18h16v-18M48 158c8-7 21-8 31-1"/>
    <path d="M402 46c0-22 19-39 43-39s43 17 43 39c0 8-5 14-13 14h-16c-2 20-12 31-28 31s-26-11-28-31h-16c-8 0-13-6-13-14z"/>
    <path d="M423 60v18h16V60M416 34c8-7 21-8 31-1"/>
    <path d="M398 174c0-25 22-44 50-44s50 19 50 44c0 9-6 16-15 16h-19c-2 23-14 36-32 36s-30-13-32-36h-19c-9 0-15-7-15-16z"/>
    <path d="M421 190v20h22v-20M414 158c10-8 25-9 37-1"/>
  </g>

  <g fill="black">
    <path d="M151 91l31-20h148l31 20-21 8 8 24-41-17H205l-41 17 8-24z"/>
    <text x="256" y="100" text-anchor="middle" fill="white" font-family="Georgia, serif" font-size="31" font-weight="700" letter-spacing="3">BISTRO</text>

    <text x="256" y="179" text-anchor="middle" font-family="Georgia, 'Times New Roman', serif" font-size="88" font-weight="700">PiPa</text>
    <text x="256" y="217" text-anchor="middle" font-family="Arial, sans-serif" font-size="25" font-weight="700">Pizza &amp; Pasta</text>

    <circle cx="92" cy="220" r="5"/>
    <circle cx="421" cy="223" r="5"/>
  </g>

  <path d="M24 249h464" stroke="black" stroke-width="3" stroke-dasharray="8 7"/>
  <text x="256" y="310" text-anchor="middle" fill="black" font-family="'Arial Narrow', Arial, sans-serif" font-size="48" font-weight="900">KASSENBON</text>
</svg>
